<?xml version="1.0" standalone="no"?>
<!DOCTYPE svg PUBLIC "-//W3C//DTD SVG 1.1//EN" "http://www.w3.org/Graphics/SVG/1.1/DTD/svg11.dtd" >
<svg xmlns="http://www.w3.org/2000/svg" xmlns:xlink="http://www.w3.org/1999/xlink" version="1.1">
<metadata></metadata>
<defs>
<font id="titilliumregular_upright" horiz-adv-x="1146" >
<font-face units-per-em="2048" ascent="1536" descent="-512" />
<missing-glyph horiz-adv-x="450" />
<glyph horiz-adv-x="0" />
<glyph unicode="&#xd;" horiz-adv-x="681" />
<glyph unicode=" "  horiz-adv-x="450" />
<glyph unicode="&#x09;" horiz-adv-x="450" />
<glyph unicode="&#xa0;" horiz-adv-x="450" />
<glyph unicode="!" horiz-adv-x="473" d="M160 0v227h155v-227h-155zM160 1434h155l-8 -963h-143z" />
<glyph unicode="&#x22;" horiz-adv-x="708" d="M127 1421h145l-4 -467h-135zM434 1421h146l-5 -467h-135z" />
<glyph unicode="#" d="M49 369v131h227v364h-227v131h227v369h140v-369h315v369h139v-369h228v-131h-228v-364h228v-131h-228v-369h-139v369h-315v-369h-140v369h-227zM416 500h315v364h-315v-364z" />
<glyph unicode="$" d="M168 995q0 375 414 375q31 0 47 -2l37 231h110l-39 -239l207 -31l-8 -119q-111 12 -219 21l-74 -475q180 -47 258 -123t78 -240q0 -416 -406 -416q-35 0 -53 3l-35 -224h-110l35 232l-224 28l9 123q121 -14 235 -22l84 520q-180 47 -263 125t-83 233zM322 1012 q0 -102 48 -149.5t167 -80.5l71 455h-18q-137 0 -202.5 -53t-65.5 -172zM541 111h32q254 0 254 268q0 100 -49 151.5t-157 81.5z" />
<glyph unicode="%" d="M59 1155q0 -145 59.5 -218t166 -73t166 73t59.5 216q0 285 -225.5 285t-225.5 -283zM182 1155q0 92 23.5 134t79 42t79 -43t23.5 -135q0 -184 -102.5 -184t-102.5 186zM326 12l379 1440l110 -31l-379 -1439zM637 291q0 283 223 282q225 0 225 -284q0 -143 -59 -216 t-165.5 -73t-165 73t-58.5 218zM760 291q0 -186 100 -187q57 0 80 45.5t23 139.5t-22.5 136t-80.5 42q-53 0 -76.5 -42t-23.5 -134z" />
<glyph unicode="&#x26;" horiz-adv-x="1302" d="M68 418q0 287 301 401q-61 78 -83 144.5t-22 158.5q0 316 330 316q338 0 338 -314q0 -125 -61.5 -219t-233.5 -170l289 -299q43 109 55 266h141q-4 -84 -29.5 -191.5t-62.5 -178.5q227 -227 240 -244q-96 -104 -101 -104l-221 225q-78 -121 -180 -175t-250 -54 q-221 0 -335.5 112.5t-114.5 325.5zM227 412q0 -133 75 -215t220 -82q213 0 326 186l-393 418q-129 -49 -178.5 -126t-49.5 -181zM424 1114q0 -98 25.5 -152.5t105.5 -136.5q119 51 168 116t49 175q0 190 -178 191q-84 0 -127 -53.5t-43 -139.5z" />
<glyph unicode="'" horiz-adv-x="401" d="M127 1421h145l-4 -467h-135z" />
<glyph unicode="(" horiz-adv-x="507" d="M96 616q0 188 50.5 418t99.5 363l49 135h145q-20 -59 -51 -158.5t-83 -343.5t-52 -414t46 -387t93 -350l47 -133h-145q-8 18 -21.5 51t-47 132.5t-60.5 197.5t-48.5 234.5t-21.5 254.5z" />
<glyph unicode=")" horiz-adv-x="507" d="M68 -242q20 59 51 158.5t83 343.5t52 414t-46 387t-93 350l-47 133h145q8 -18 21.5 -51t47 -132t60.5 -197.5t48.5 -234.5t21.5 -255q0 -188 -50.5 -417.5t-99.5 -362.5l-49 -136h-145z" />
<glyph unicode="*" horiz-adv-x="831" d="M96 938l221 162l-217 157l62 86l219 -159l84 258l100 -33l-84 -260h269v-102h-271l84 -256l-100 -31l-84 258l-221 -162z" />
<glyph unicode="+" d="M113 444v140h387v399h143v-399h391v-140h-391v-403h-143v403h-387z" />
<glyph unicode="," horiz-adv-x="425" d="M70 -266l77 493h164l-118 -493h-123z" />
<glyph unicode="-" horiz-adv-x="770" d="M129 477v141h514v-141h-514z" />
<glyph unicode="." horiz-adv-x="411" d="M129 0v227h156v-227h-156z" />
<glyph unicode="/" horiz-adv-x="798" d="M59 31l541 1417l141 -51l-540 -1417z" />
<glyph unicode="0" d="M94 655q0 207 33 350.5t97.5 222.5t148 112.5t198.5 33.5q117 0 202 -33.5t149.5 -112.5t96.5 -221.5t32 -349.5q0 -330 -110 -503.5t-368 -173.5t-368.5 174t-110.5 501zM254 653q0 -119 12.5 -206t45 -166.5t98 -121.5t163.5 -42q96 0 161 39t97.5 115.5t46 166.5 t13.5 217q0 324 -76 453t-241.5 129t-242.5 -128t-77 -456z" />
<glyph unicode="1" d="M225 1067l426 287h144v-1354h-158v1169l-338 -225z" />
<glyph unicode="2" d="M141 0v129l404 420q152 158 210 248t58 198q0 129 -71.5 185.5t-211.5 56.5q-61 0 -153 -11.5t-154 -21.5l-61 -12l-12 125q225 57 403 57q420 0 420 -362q0 -145 -66.5 -253t-214.5 -253l-368 -369h684v-137h-867z" />
<glyph unicode="3" d="M131 33l19 121q199 -37 405 -37q289 0 289 264q0 242 -273 252h-266v127l264 8q86 2 164 68.5t78 169.5q0 125 -63.5 178t-208.5 53q-78 0 -172.5 -9t-149.5 -20l-55 -8l-10 119q217 55 393 55q223 0 324.5 -86t101.5 -266q0 -211 -199 -303q119 -43 175.5 -111.5 t56.5 -220.5q0 -408 -433 -407q-90 0 -199.5 13t-174.5 27z" />
<glyph unicode="4" d="M96 254v119l404 981h168l-414 -965h479v442h156v-442h162v-135h-162v-258h-156v258h-637z" />
<glyph unicode="5" d="M135 43l19 123q219 -47 409 -47q135 0 218 84t83 237q0 270 -282 271q-70 0 -150 -21.5t-125 -42.5l-43 -20l-108 22l41 705h772v-140h-643l-37 -450q168 84 313 84q422 0 422 -402q0 -229 -122 -346.5t-333 -117.5q-82 0 -190.5 15t-175.5 32z" />
<glyph unicode="6" d="M111 629q0 745 520 745q68 0 159 -10t148 -21l57 -10l-16 -129q-188 33 -348 33q-168 0 -257 -116.5t-104 -362.5q195 86 336 86q213 0 330 -101.5t117 -310.5q0 -223 -118 -337.5t-337 -114.5q-242 0 -364.5 166.5t-122.5 482.5zM270 598q0 -223 84 -352t244 -129 q143 0 219 79.5t76 235.5q0 275 -299 275q-66 0 -145.5 -19.5t-129.5 -40.5l-47 -18q-2 -8 -2 -31z" />
<glyph unicode="7" d="M168 1217v137h817v-224l-512 -1157l-145 47l499 1123v74h-659z" />
<glyph unicode="8" d="M72 352q0 139 60.5 217t174.5 138q-111 55 -162 125.5t-51 191.5q0 172 127 261t348 89q223 0 353.5 -89t130.5 -263q0 -125 -52.5 -192.5t-175.5 -122.5q121 -47 184.5 -124t63.5 -208q0 -209 -137 -303.5t-367 -94.5q-225 0 -361 89.5t-136 285.5zM231 371 q0 -133 91 -194.5t247 -61.5q344 0 344 268q0 109 -62.5 161t-182.5 87h-207q-113 -31 -171.5 -91.5t-58.5 -168.5zM254 1006q0 -90 51 -147.5t156 -94.5h207q225 74 225 240q0 233 -322 233q-317 0 -317 -231z" />
<glyph unicode="9" d="M92 932q0 205 129 323.5t332 118.5q238 0 358.5 -179t120.5 -523q0 -373 -135 -532.5t-387 -159.5q-68 0 -159 10t-150 22l-58 11l17 137q190 -35 350 -35q358 0 360 459q-209 -74 -344 -74q-203 0 -318.5 106.5t-115.5 315.5zM256 932q0 -139 74 -210t209 -71 q59 0 142 16.5t138 32.5l53 17q-2 242 -80.5 377t-238.5 135q-133 0 -215 -80t-82 -217z" />
<glyph unicode=":" horiz-adv-x="411" d="M129 0v227h156v-227h-156zM129 670v227h156v-227h-156z" />
<glyph unicode=";" horiz-adv-x="471" d="M90 -266h123l119 493h-164zM172 670v227h156v-227h-156z" />
<glyph unicode="&#x3c;" d="M125 446v136l854 415v-159l-694 -322l694 -328v-161z" />
<glyph unicode="=" d="M131 254v141h885v-141h-885zM131 633v141h885v-141h-885z" />
<glyph unicode="&#x3e;" d="M168 27v161l694 328l-694 322v159l854 -415v-136z" />
<glyph unicode="?" horiz-adv-x="837" d="M61 1382q197 55 320 56q201 0 293 -78t92 -266q0 -94 -44 -171t-171 -218q-121 -133 -121 -222v-82h-147q-10 59 -11 105q0 78 35 135t135 172q98 113 130 165t32 116q0 119 -54 161.5t-181 42.5q-49 0 -122 -10t-120 -20l-47 -11zM270 2v238h160v-238h-160z" />
<glyph unicode="@" horiz-adv-x="1886" d="M92 535q0 498 211 713.5t670 215.5q463 0 649 -218t186 -703q0 -553 -360 -553q-117 0 -175.5 44t-82.5 156q-35 -61 -124 -130.5t-196 -69.5q-176 0 -253.5 127t-77.5 375q0 268 89 405t320 137q51 0 144.5 -9t160.5 -17l66 -9v-731q0 -78 29.5 -112.5t99.5 -34.5 q100 0 158.5 92t58.5 330q0 217 -30.5 358t-108.5 242.5t-212 145.5t-341 44q-389 0 -562 -184t-173 -614q0 -426 163.5 -623t563.5 -197l276 21l4 -133q-188 -18 -280 -19q-469 0 -671 230.5t-202 720.5zM696 506q0 -193 43 -289t158 -96q70 0 136.5 53t99.5 109l32 53v547 l-43 6q-43 4 -94 9t-74 5q-82 0 -135 -29.5t-78.5 -88t-35 -123t-9.5 -156.5z" />
<glyph unicode="A" horiz-adv-x="1132" d="M45 0l367 1417h309l364 -1417h-155l-99 360h-530l-98 -360h-158zM332 500h467l-203 778h-59z" />
<glyph unicode="B" horiz-adv-x="1167" d="M158 0v1417h469q403 0 403 -354q0 -246 -180 -328q119 -43 170 -121.5t51 -210.5q0 -209 -107.5 -306t-324.5 -97h-481zM313 137h324q139 0 204.5 66.5t65.5 208.5q0 127 -68.5 185t-207.5 58h-318v-518zM313 791h316q121 0 180 69.5t59 190.5q0 229 -241 229h-314v-489z " />
<glyph unicode="C" horiz-adv-x="1026" d="M109 707q0 369 106.5 550t374.5 181q76 0 166 -10.5t141 -22.5l53 -10l-10 -131q-188 34 -322 34h-8q-199 0 -269.5 -145t-70.5 -446q0 -115 8.5 -199t30 -161t59.5 -125t99 -75.5t145 -27.5q55 0 137 8t136 16l55 11l8 -131q-197 -43 -358 -43q-143 0 -239.5 48 t-148.5 148t-72.5 225t-20.5 306z" />
<glyph unicode="D" horiz-adv-x="1226" d="M158 0v1417h469q274 0 382.5 -159.5t108.5 -522.5q0 -383 -107.5 -559t-383.5 -176h-469zM313 139h314q190 0 258.5 146.5t68.5 449.5q0 293 -67.5 418t-259.5 125h-314v-1139z" />
<glyph unicode="E" horiz-adv-x="1038" d="M158 0v1417h792v-139h-637v-487h523v-140h-523v-512h637v-139h-792z" />
<glyph unicode="F" horiz-adv-x="997" d="M158 0v1417h794v-139h-639v-559h525v-137h-525v-582h-155z" />
<glyph unicode="G" horiz-adv-x="1175" d="M106 711q0 176 24 302t80 226t160.5 149.5t256.5 49.5q96 0 202.5 -13.5t165.5 -27.5l58 -13l-9 -124q-232 38 -399 38h-8q-94 0 -162.5 -29.5t-107.5 -78.5t-61.5 -129t-30 -159t-7.5 -191q0 -129 16.5 -228.5t55.5 -185.5t113.5 -132t181.5 -46q45 0 110.5 6t106.5 14 l43 6v459h-215v135h373v-714q-281 -45 -435 -45q-512 0 -512 731z" />
<glyph unicode="H" horiz-adv-x="1269" d="M158 0v1417h155v-633h641v633h158v-1417h-158v647h-641v-647h-155z" />
<glyph unicode="I" horiz-adv-x="471" d="M158 0v1417h155v-1417h-155z" />
<glyph unicode="J" horiz-adv-x="548" d="M35 -4q139 0 173 48t34 202v1171h155l2 -1184q0 -117 -11 -181t-50 -112.5t-109.5 -65.5t-193.5 -17v139z" />
<glyph unicode="K" horiz-adv-x="1075" d="M158 0v1417h155v-655l193 8l342 647h176l-383 -700l406 -717h-177l-362 631l-195 -6v-625h-155z" />
<glyph unicode="L" horiz-adv-x="897" d="M158 0v1417h155v-1278h559v-139h-714z" />
<glyph unicode="M" horiz-adv-x="1589" d="M158 0v1417h276l361 -1216l362 1216h275v-1417h-150v1278h-29l-362 -1227h-195l-360 1227h-31v-1278h-147z" />
<glyph unicode="N" horiz-adv-x="1288" d="M158 0v1417h274l510 -1255h37v1255h151v-1417h-270l-512 1262h-35v-1262h-155z" />
<glyph unicode="O" horiz-adv-x="1253" d="M109 721q0 266 45 420.5t159 224.5q111 72 314 72q303 0 410.5 -163t107.5 -554q0 -279 -48 -440.5t-173 -235.5q-107 -65 -297 -65q-301 0 -409.5 173t-108.5 568zM272 721q0 -135 7.5 -223t28 -166t60.5 -121t103.5 -67.5t155.5 -24.5q117 0 184 35q102 51 136 181 t34 386q0 332 -65.5 454.5t-288.5 122.5q-115 0 -181 -28q-106 -45 -140 -169t-34 -380z" />
<glyph unicode="P" horiz-adv-x="1122" d="M158 0v1417h448q227 0 339 -108.5t112 -350.5q0 -491 -451 -491h-293v-467h-155zM313 608h285q150 0 222.5 82t72.5 273q0 174 -71.5 244.5t-223.5 70.5h-285v-670z" />
<glyph unicode="Q" horiz-adv-x="1253" d="M109 721q0 266 45 420.5t159 224.5q111 72 314 72q303 0 410.5 -163t107.5 -554q0 -276 -46 -436t-167 -236l160 -262l-136 -80l-161 289q-78 -16 -168 -16q-301 0 -409.5 173t-108.5 568zM272 721q0 -135 7.5 -223t28 -166t60.5 -121t103.5 -67.5t155.5 -24.5 q117 0 184 35q102 51 136 181t34 386q0 332 -65.5 454.5t-288.5 122.5q-115 0 -181 -28q-106 -45 -140 -169t-34 -380z" />
<glyph unicode="R" horiz-adv-x="1159" d="M158 0v1417h467q426 0 426 -430q0 -330 -236 -414l270 -573h-170l-253 543h-349v-543h-155zM313 680h312q135 0 199.5 75.5t64.5 231.5q0 150 -64.5 221.5t-199.5 71.5h-312v-600z" />
<glyph unicode="S" horiz-adv-x="1024" d="M88 1044q0 393 434 394q72 0 167 -10.5t155 -22.5l57 -10l-8 -125q-218 28 -354 28h-9q-143 0 -211.5 -56t-68.5 -181q0 -121 64.5 -168t242.5 -92q207 -51 294 -130t87 -257q0 -434 -426 -434q-72 0 -173 9t-167 19l-66 10l11 129q251 -28 386 -28h9q266 0 266 280 q0 121 -64.5 174.5t-221.5 88.5q-213 49 -308.5 130.5t-95.5 251.5z" />
<glyph unicode="T" horiz-adv-x="964" d="M25 1278v139h915v-139h-375v-1278h-157v1278h-383z" />
<glyph unicode="U" horiz-adv-x="1222" d="M150 432v985h155v-995q0 -162 74 -232.5t231 -70.5q160 0 232.5 70.5t72.5 232.5v995h158v-985q0 -233 -112.5 -342.5t-350.5 -109.5q-236 0 -348 109.5t-112 342.5z" />
<glyph unicode="V" horiz-adv-x="1112" d="M45 1417h158l309 -1278h90l305 1278h158l-344 -1417h-330z" />
<glyph unicode="W" horiz-adv-x="1701" d="M61 1417h152l244 -1272h53l254 1252h170l260 -1252h53l238 1272h153l-274 -1417h-279l-237 1194l-232 -1194h-276z" />
<glyph unicode="X" horiz-adv-x="1060" d="M33 0l405 705l-401 712h172l321 -592l322 592h170l-393 -710l399 -707h-172l-324 592l-329 -592h-170z" />
<glyph unicode="Y" horiz-adv-x="1019" d="M20 1417h170l320 -653l317 653h168l-409 -823v-594h-150v594z" />
<glyph unicode="Z" horiz-adv-x="1013" d="M82 -2v197l674 1032v51h-674v139h850v-196l-676 -1035v-49h676v-139h-850z" />
<glyph unicode="[" horiz-adv-x="630" d="M147 -250v1780h406v-133h-258v-1514h258v-133h-406z" />
<glyph unicode="\" horiz-adv-x="923" d="M59 1419l158 17l645 -1469l-155 -16z" />
<glyph unicode="]" horiz-adv-x="630" d="M78 -117h258v1514h-258v133h405v-1780h-405v133z" />
<glyph unicode="^" d="M109 653l378 699h140l391 -699h-164l-295 547l-287 -547h-163z" />
<glyph unicode="_" horiz-adv-x="1284" d="M184 -162h918v-149h-918v149z" />
<glyph unicode="`" horiz-adv-x="1060" d="M248 1403l47 127l422 -193l-41 -110z" />
<glyph unicode="a" horiz-adv-x="1009" d="M96 492q0 102 10.5 182t38 151.5t73.5 118.5t118 73.5t170 26.5q51 0 143 -8t158 -16l67 -10v-758l13 -250l-154 -6q-10 94 -10 176q-4 -8 -13.5 -20.5t-38 -46t-61 -59.5t-83 -46t-103.5 -20q-178 0 -253 125.5t-75 386.5zM252 492q0 -186 44 -282.5t159 -96.5 q70 0 136 53t97 106l33 54v567q-142 18 -197 18q-158 0 -215 -100t-57 -319z" />
<glyph unicode="b" horiz-adv-x="1011" d="M135 2v1468h154v-569q14 16 41.5 40t104.5 63.5t147 39.5q184 0 258.5 -129t74.5 -383q0 -289 -100 -420.5t-330 -131.5q-55 0 -142 6t-146 10zM289 127q154 -14 203 -14q154 0 211 99t57 320q0 182 -45 280.5t-160 98.5q-39 0 -81 -15t-73.5 -35.5t-58.5 -42t-39 -36.5 l-14 -16v-639z" />
<glyph unicode="c" horiz-adv-x="817" d="M94 526q0 270 95.5 394t304.5 124q47 0 108.5 -8t99.5 -16l39 -6l-6 -123q-137 18 -211 18q-154 0 -213 -91t-59 -292q0 -215 53 -314t219 -99l211 16l6 -121q-140 -28 -242 -28h-7q-229 0 -313.5 132t-84.5 414z" />
<glyph unicode="d" horiz-adv-x="1009" d="M96 498q0 274 93.5 410t304.5 136q47 0 103 -6t91 -14l33 -6v452h153v-1470h-149l-2 150q-4 -6 -13.5 -18.5t-39 -41.5t-62.5 -51.5t-84 -40.5t-104 -18q-174 0 -249 132t-75 386zM252 498q0 -184 44 -284.5t165 -100.5q41 0 84 20.5t72.5 48t54 56t37.5 49.5l12 20v582 q-112 22 -205 22h-8q-143 0 -199.5 -102t-56.5 -311z" />
<glyph unicode="e" horiz-adv-x="927" d="M92 496q0 546 414 546h2q342 0 342 -274q0 -178 -116 -244.5t-380 -66.5h-106v-31q-1 -313 239 -313q66 0 145 9t126 19l47 11l8 -113q-147 -57 -334 -57q-203 0 -295 121.5t-92 392.5zM250 575h102q193 0 269.5 39t76.5 152q0 149 -187 149h-3q-254 0 -258 -340z" />
<glyph unicode="f" horiz-adv-x="634" d="M59 891v133h117v88q0 205 61.5 292t198.5 87q29 0 74 -5t76 -11l30 -5l-2 -127q-92 14 -151 15q-76 0 -104.5 -57.5t-28.5 -190.5v-86h268v-133h-268v-891l-15 -455h-139v1346h-117z" />
<glyph unicode="g" horiz-adv-x="962" d="M82 -205q0 86 54 164t134 129q-51 43 -51 123q0 31 16.5 72t32.5 65l17 27q-188 70 -189 317q0 168 91.5 260t258.5 92q39 0 84 -6t72 -14l25 -6l293 4v-127h-181q70 -66 70 -203q0 -168 -94 -257t-271 -89l-49 4q-35 -76 -35 -121q0 -39 34 -58t147 -19q190 0 282 -57.5 t92 -223.5q0 -158 -120.5 -255t-313.5 -97q-197 0 -298 59.5t-101 216.5zM227 -180q0 -96 63.5 -133t196.5 -37q129 0 205 58.5t76 162.5q0 90 -56.5 118.5t-179.5 28.5q-100 0 -165 15q-53 -29 -96.5 -89.5t-43.5 -123.5zM242 692q-1 -213 202 -213q219 0 220 213 q0 223 -218 223q-205 0 -204 -223z" />
<glyph unicode="h" horiz-adv-x="1026" d="M135 0v1470h154v-598q4 6 14 18.5t41 42.5t63.5 52.5t81 40.5t97.5 18q313 0 313 -405v-639h-151v594q0 166 -45.5 241.5t-147.5 75.5q-39 0 -80 -19.5t-72.5 -46t-58.5 -54t-41 -46.5l-14 -20v-725h-154z" />
<glyph unicode="i" horiz-adv-x="423" d="M133 1239v182h158v-182h-158zM135 0v1024h154v-1024h-154z" />
<glyph unicode="j" horiz-adv-x="423" d="M-94 -362q162 98 195.5 154t33.5 208v1024h154v-1024q0 -111 -7.5 -168t-44 -113.5t-95 -96.5t-177.5 -103zM135 1239v184h156v-184h-156z" />
<glyph unicode="k" horiz-adv-x="927" d="M135 0v1470h154v-868l131 6l291 416h172l-334 -471l340 -553h-172l-295 477l-133 -8v-469h-154z" />
<glyph unicode="l" horiz-adv-x="440" d="M143 0v1470h154v-1470h-154z" />
<glyph unicode="m" horiz-adv-x="1593" d="M135 0v1024h152l2 -154q6 6 15 18.5t41 42.5t63.5 53.5t80 41.5t93.5 18q59 0 108 -18t77 -44t46 -51.5t27 -43.5l6 -19q16 20 42.5 49t107.5 78t157 49q313 0 313 -430v-614h-151v594q0 168 -44 242.5t-149 74.5q-59 0 -119.5 -40t-91.5 -80l-30 -41q8 -70 8 -148v-602 h-154v582q0 174 -44 251.5t-140 77.5q-57 0 -123 -48t-102 -95l-37 -47v-721h-154z" />
<glyph unicode="n" horiz-adv-x="1026" d="M135 0v1024h152l2 -154q4 6 14 18.5t41 42.5t63.5 53.5t81 41.5t97.5 18q313 0 313 -407v-637h-151v594q0 166 -45.5 241.5t-147.5 75.5q-61 0 -128 -48t-103 -95l-35 -47v-721h-154z" />
<glyph unicode="o" horiz-adv-x="995" d="M96 522q0 262 88 392t313.5 130t313.5 -130t88 -392q0 -106 -8 -182t-32.5 -147.5t-67.5 -115.5t-117 -70.5t-176.5 -26.5t-176 26.5t-116.5 70.5t-67.5 115.5t-33 147.5t-8.5 182zM244 522q0 -86 4 -140t18.5 -110.5t41 -88t74.5 -51t115.5 -19.5t116 19.5t75 51 t40.5 88t18.5 110.5t4.5 140q0 205 -54.5 297t-200 92t-199.5 -92t-54 -297z" />
<glyph unicode="p" horiz-adv-x="1007" d="M135 -455v1479h152l2 -152q12 18 35.5 47t98.5 77t150 48q188 0 264 -131t76 -389q0 -272 -93 -408t-310 -136q-45 0 -100.5 6t-87.5 14l-33 6v-461h-154zM289 133q115 -20 207 -20q147 0 204.5 100t57.5 311q0 184 -43 285.5t-160 101.5q-66 0 -132.5 -48t-98.5 -97 l-35 -49v-584z" />
<glyph unicode="q" horiz-adv-x="1007" d="M96 498q0 283 96.5 414.5t319.5 131.5q49 0 139 -8t156 -16l65 -10v-1452h-151v587q-4 -6 -12.5 -17t-37 -40t-60 -50.5t-82 -39.5t-101.5 -18q-96 0 -162.5 38.5t-102.5 111.5t-51.5 162t-15.5 206zM252 498q0 -195 44 -290t165 -95q61 0 126.5 48t100.5 95l33 47v588 q-134 20 -193 20q-152 0 -214 -92t-62 -321z" />
<glyph unicode="r" horiz-adv-x="643" d="M135 0v1024h154v-156q16 14 44.5 38t112.5 72t162 66v-161q-66 -16 -145.5 -52t-126.5 -65l-47 -29v-737h-154z" />
<glyph unicode="s" horiz-adv-x="874" d="M88 743q0 156 96.5 228.5t237.5 72.5q76 0 161 -8t132 -16l47 -10l-6 -123q-186 24 -318 24h-10q-80 0 -133 -37.5t-53 -117.5q0 -78 47 -111t168 -55q78 -16 116.5 -26.5t90 -33t74 -49t40 -73t17.5 -107.5q0 -178 -94.5 -249.5t-276.5 -71.5q-61 0 -145 10t-136 20 l-53 10l10 125q207 -32 306 -32h6q121 0 175 38.5t54 135.5q0 35 -11.5 60.5t-26.5 40.5t-50 27.5t-60.5 18.5t-78.5 17q-170 35 -248 94t-78 198z" />
<glyph unicode="t" horiz-adv-x="663" d="M51 891v133h133v303h152v-303h289v-133h-289v-594q0 -184 133 -184l162 12l8 -121q-114 -24 -183 -24h-5q-147 0 -207 76.5t-60 232.5v602h-133z" />
<glyph unicode="u" horiz-adv-x="1028" d="M127 395v629h154v-594q0 -168 44 -242.5t148 -74.5q61 0 128 48t104 95l34 47v721h152v-1024h-150l-2 154q-4 -6 -14 -18.5t-41 -42.5t-63.5 -53.5t-80.5 -41.5t-98 -18q-166 0 -240.5 102t-74.5 313z" />
<glyph unicode="v" horiz-adv-x="915" d="M45 1024h156l225 -893h63l226 893h155l-272 -1024h-281z" />
<glyph unicode="w" horiz-adv-x="1490" d="M59 1024h154l190 -891h41l220 871h163l217 -871h43l189 891h154l-220 -1024h-270l-195 797l-194 -797h-270z" />
<glyph unicode="x" horiz-adv-x="854" d="M43 0l299 508l-299 516h160l227 -403l225 403h156l-299 -514l299 -510h-158l-227 397l-227 -397h-156z" />
<glyph unicode="y" horiz-adv-x="917" d="M49 1024h152l225 -893h63l230 893h151l-393 -1479h-147l129 455h-142z" />
<glyph unicode="z" horiz-adv-x="862" d="M78 0v131l534 760h-534v133h706v-129l-534 -762h534v-133h-706z" />
<glyph unicode="{" horiz-adv-x="679" d="M49 571v129q74 16 133.5 67.5t59.5 143.5q0 39 -7.5 136.5t-7.5 132.5q0 188 88 273t285 89l2 -139q-129 -2 -175 -51t-46 -164q0 -14 7 -131t7 -135q0 -125 -41 -185.5t-141 -97.5q182 -68 182 -277q0 -31 -7 -141t-7 -147q0 -190 221 -195l-2 -139q-373 8 -373 336 q0 35 7.5 140.5t7.5 135.5q0 53 -16.5 92t-47.5 62.5t-56.5 36t-60.5 24.5q-8 2 -12 4z" />
<glyph unicode="|" horiz-adv-x="444" d="M145 -455v1925h154v-1925h-154z" />
<glyph unicode="}" horiz-adv-x="679" d="M78 -123q129 2 175 51t46 164q0 14 -7 131t-7 135q0 125 41 185.5t141 97.5q-182 68 -182 277q0 31 7 141t7 147q0 190 -221 195l2 139q373 -8 373 -336q0 -35 -7.5 -140.5t-7.5 -135.5q0 -53 16.5 -92t47 -62.5t56.5 -36t60 -24.5q8 -2 13 -4v-129q-74 -16 -133.5 -67.5 t-59.5 -143.5q0 -39 7.5 -136.5t7.5 -132.5q0 -188 -88.5 -273t-284.5 -89z" />
<glyph unicode="~" d="M135 557q129 109 240 109q59 0 211.5 -62.5t195.5 -62.5q33 0 85.5 23.5t86.5 45.5l37 25l21 -125q-14 -12 -37 -30.5t-83.5 -49.5t-109.5 -31q-61 0 -215.5 63.5t-193.5 63.5q-37 0 -91.5 -23.5t-88.5 -47.5l-35 -25z" />
<glyph unicode="&#xa1;" horiz-adv-x="438" d="M139 -410l8 963h144l4 -963h-156zM139 797v227h156v-227h-156z" />
<glyph unicode="&#xa2;" d="M223 508q0 418 346 440v244h127v-248l195 -20l-6 -138q-176 16 -250 17q-141 0 -198.5 -67.5t-57.5 -227.5q0 -152 54 -220.5t214 -68.5l240 14l6 -131q-115 -16 -195 -22v-244h-129v240q-346 8 -346 432z" />
<glyph unicode="&#xa3;" d="M160 0v133h190v596h-153v133h153v105q0 106 10.5 174.5t40 130t89 90.5t153.5 29q37 0 106.5 -9.5t120.5 -17.5l52 -8l-4 -123q-174 20 -259 20q-43 0 -72.5 -16t-45 -37.5t-23.5 -67t-9 -79t-1 -97.5v-94h387v-133h-387v-596h293l151 33l23 -129l-156 -37h-659z" />
<glyph unicode="&#xa4;" d="M119 170l143 143q-59 92 -59 203t59 203l-143 143l108 109l144 -146q92 59 202.5 59.5t202.5 -59.5l144 146l108 -109l-145 -143q59 -92 59 -202.5t-59 -203.5l145 -143l-108 -109l-144 144q-92 -59 -202.5 -59.5t-202.5 59.5l-144 -144zM348 516q0 -94 65.5 -159.5 t160 -65.5t160 65.5t65.5 159.5t-65.5 159.5t-160 65.5t-160 -65.5t-65.5 -159.5z" />
<glyph unicode="&#xa5;" d="M55 1354h174l346 -590l340 590h177l-338 -582h247v-139h-327l-21 -31v-137h348v-139h-348v-326h-155v326h-353v139h353v137l-19 31h-334v139h250z" />
<glyph unicode="&#xa6;" horiz-adv-x="452" d="M150 319h153v-774h-153v774zM150 705v765h153v-765h-153z" />
<glyph unicode="&#xa7;" horiz-adv-x="952" d="M94 522q0 123 109 254q-47 43 -66.5 91t-19.5 137q0 154 94 240.5t283 86.5q57 0 136 -8t128 -16l51 -11l-6 -135q-211 29 -303 29q-238 0 -238 -176q0 -96 55.5 -134t221.5 -73q160 -33 235.5 -94.5t75.5 -202.5q0 -72 -28.5 -149.5t-53.5 -116.5q68 -57 68 -203 q0 -344 -367 -344q-55 0 -140 8t-143 16l-57 9l14 135q211 -29 318 -29q236 0 235 197q0 37 -13 63.5t-30.5 44t-58.5 31.5t-76 22.5t-100 22.5q-172 33 -248 97.5t-76 207.5zM240 545q0 -86 49 -124t168 -61q141 -27 196 -57q10 14 29.5 72.5t19.5 116.5q0 90 -49 124 t-151 54q-186 47 -199 53q-63 -106 -63 -178z" />
<glyph unicode="&#xa8;" horiz-adv-x="1392" d="M195 1270v190h127v-190h-127zM569 1270v190h123v-190h-123z" />
<glyph unicode="&#xa9;" horiz-adv-x="1294" d="M106 889q0 238 155 398.5t386 160.5q233 0 386 -163t153 -396q0 -238 -151.5 -398.5t-389.5 -160.5q-229 0 -384 161.5t-155 397.5zM197 888.5q0 -196.5 128 -332.5t320.5 -136t321.5 136t129 332.5t-129 334t-322 137.5q-190 0 -319 -137.5t-129 -334zM414 891 q0 166 54 242.5t189 76.5q39 0 78 -5t60 -9l18 -6l-6 -109q-80 12 -145 13q-76 0 -99.5 -46.5t-23.5 -156.5q0 -109 26.5 -159t96.5 -50l145 14l6 -106q-76 -25 -160 -25q-133 0 -186 77t-53 249z" />
<glyph unicode="&#xaa;" horiz-adv-x="772" d="M102 920q0 164 197 176l180 12v45q0 82 -100 82l-236 -14l-4 98q141 31 246 31q115 0 170 -45t55 -158v-281q18 -23 62 -35l-4 -100q-78 0 -111 12.5t-61 40.5q-111 -53 -220 -53q-82 0 -128 51.5t-46 137.5zM238 922q0 -80 73 -80q33 0 75 9t69 17l24 9v137l-157 -10 q-45 -4 -64.5 -22.5t-19.5 -59.5z" />
<glyph unicode="&#xab;" horiz-adv-x="1021" d="M291 469v78l364 291v-21l25 21v-140l-242 -188l242 -207v-141l-25 20v-20z" />
<glyph unicode="&#xac;" d="M133 561v139h877v-460h-144v321h-733z" />
<glyph unicode="&#xad;" horiz-adv-x="770" d="M129 477v141h514v-141h-514z" />
<glyph unicode="&#xae;" horiz-adv-x="1294" d="M106 889q0 238 154 398.5t385 160.5q236 0 388.5 -162t152.5 -397q0 -238 -151.5 -398.5t-389.5 -160.5q-229 0 -384 161.5t-155 397.5zM197 888.5q0 -194.5 129 -331.5t319 -137q193 0 322 136t129 332.5t-129 334t-322 137.5q-190 0 -319 -138.5t-129 -333zM422 578 v620h225q117 0 175.5 -45t58.5 -149q0 -76 -23.5 -120t-81.5 -71l115 -235h-127l-100 219h-123v-219h-119zM539 893h123q53 0 77.5 24.5t24.5 79.5q0 104 -127 105h-98v-209z" />
<glyph unicode="&#xaf;" horiz-adv-x="899" d="M160 1309v121h561v-121h-561z" />
<glyph unicode="&#xb0;" d="M283 1149q0 129 80.5 209t209.5 80t210 -80t81 -209t-81 -209t-210 -80t-209.5 80t-80.5 209zM387 1149q0 -86 51 -138.5t135 -52.5t137.5 52.5t53.5 138.5q0 84 -53.5 137t-137.5 53t-135 -53t-51 -137z" />
<glyph unicode="&#xb1;" d="M113 78v139h921v-139h-921zM113 600v139h387v258h143v-258h391v-139h-391v-260h-143v260h-387z" />
<glyph unicode="&#xb2;" horiz-adv-x="573" d="M63 979v115l181 176q102 98 102 170q0 74 -100 73q-27 0 -70 -5t-74 -9l-28 -6l-6 121q123 25 211 24q106 0 155 -45t49 -141q0 -117 -127 -231l-123 -123h259v-119h-429z" />
<glyph unicode="&#xb3;" horiz-adv-x="573" d="M61 979l9 115q117 -14 204 -15q102 0 103 84q0 86 -96 86h-134v111h134q29 0 53 26.5t24 63.5q0 68 -92 68l-188 -15l-8 115q121 20 209 20q217 0 217 -172q0 -94 -82 -153q51 -16 74.5 -49t23.5 -107q0 -199 -219 -199q-45 0 -102.5 5.5t-92.5 11.5z" />
<glyph unicode="&#xb4;" horiz-adv-x="1118" d="M242 1335l422 197l47 -135l-426 -176z" />
<glyph unicode="&#xb5;" d="M190 -455v1479h154v-594q0 -168 44 -242.5t149 -74.5q61 0 127.5 48t101.5 95l37 47v721h151v-1024h-149l-2 154q-4 -6 -14.5 -18.5t-41 -42.5t-63.5 -53.5t-81 -41.5t-97 -18q-96 0 -162 34v-469h-154z" />
<glyph unicode="&#xb6;" horiz-adv-x="1134" d="M66 1026q0 182 89 295t269 113h635v-131h-139v-1303h-129v1303h-226v-1303h-131v680q-162 0 -265 101.5t-103 244.5z" />
<glyph unicode="&#xb7;" horiz-adv-x="413" d="M129 502v239h158v-239h-158z" />
<glyph unicode="&#xb8;" horiz-adv-x="1619" d="M739 -418l6 105q76 -6 127 -6q86 0 86 73q0 66 -86 66h-81v190h79v-102h17q200 0 200 -162q0 -90 -49 -134t-133 -44q-37 0 -79 3t-64 7z" />
<glyph unicode="&#xb9;" horiz-adv-x="573" d="M68 1475l206 143h123v-639h-131v496l-139 -97z" />
<glyph unicode="&#xba;" horiz-adv-x="739" d="M100 1042q1 308 269 308q184 0 239 -129q31 -72 31 -179q0 -315 -270 -315q-223 0 -260 215q-8 41 -9 100zM231 1042q0 -16 7 -77q10 -63 41 -89t90 -26q78 0 108.5 42t30.5 150q0 33 -4 74q-10 61 -42 86t-93 25q-76 0 -107 -41t-31 -144z" />
<glyph unicode="&#xbb;" horiz-adv-x="1038" d="M356 172v139l242 189l-242 207v141l11 -8v8l364 -307v-78l-364 -291v8z" />
<glyph unicode="&#xbc;" horiz-adv-x="1159" d="M37 1475l207 143h123v-639h-131v496l-140 -97zM182 31l541 1417l141 -51l-540 -1417zM629 98v113l141 428h143l-149 -420h154l10 180h119v-180h55v-121h-55v-98h-129v98h-289z" />
<glyph unicode="&#xbd;" horiz-adv-x="1206" d="M37 1475l207 143h123v-639h-131v496l-140 -97zM182 31l541 1417l141 -51l-540 -1417zM702 0v115l181 176q102 98 102 170q0 74 -100 74q-27 0 -70 -5.5t-74 -9.5l-28 -6l-6 121q123 25 211 24q106 0 155 -45t49 -141q0 -117 -127 -231l-123 -123h258v-119h-428z" />
<glyph unicode="&#xbe;" horiz-adv-x="1206" d="M76 979l8 115q117 -14 205 -15q102 0 102 84q0 86 -96 86h-133v111h133q29 0 53.5 26.5t24.5 63.5q0 68 -92 68l-189 -15l-8 115q121 20 209 20q217 0 217 -172q0 -94 -82 -153q51 -16 74.5 -49t23.5 -107q0 -199 -219 -199q-45 0 -102.5 5.5t-93.5 11.5zM233 31 l541 1417l141 -51l-540 -1417zM680 98v113l141 428h144l-150 -420h154l10 180h119v-180h55v-121h-55v-98h-129v98h-289z" />
<glyph unicode="&#xbf;" horiz-adv-x="827" d="M66 -68q0 94 44 171t171 219q121 133 120 221v82h148q10 -59 10 -105q0 -78 -35 -135t-135 -172q-98 -113 -130 -165t-32 -116q0 -119 54.5 -161.5t181.5 -42.5q49 0 121.5 10t120.5 20l47 11l18 -125q-197 -55 -319 -56q-201 0 -293 78t-92 266zM401 786v238h160v-238 h-160z" />
<glyph unicode="&#xc0;" horiz-adv-x="1132" d="M45 0l367 1417h309l364 -1417h-155l-99 360h-530l-98 -360h-158zM270 1774l49 133l422 -193l-45 -117zM332 500h467l-203 778h-59z" />
<glyph unicode="&#xc1;" horiz-adv-x="1132" d="M45 0l367 1417h309l364 -1417h-155l-99 360h-530l-98 -360h-158zM332 500h467l-203 778h-59zM391 1720l422 197l49 -133l-426 -176z" />
<glyph unicode="&#xc2;" horiz-adv-x="1132" d="M45 0l367 1417h309l364 -1417h-155l-99 360h-530l-98 -360h-158zM250 1624l268 283h84l270 -283h-149l-162 166l-162 -166h-149zM332 500h467l-203 778h-59z" />
<glyph unicode="&#xc3;" horiz-adv-x="1132" d="M45 0l367 1417h309l364 -1417h-155l-99 360h-530l-98 -360h-158zM233 1769q111 125 189 125q55 0 171 -56t140 -56q18 0 54 22.5t65 46.5l27 23l32 -105q-109 -123 -178 -122q-47 0 -165.5 57t-149.5 57q-20 0 -59.5 -24.5t-67.5 -48.5l-29 -25zM332 500h467l-203 778 h-59z" />
<glyph unicode="&#xc4;" horiz-adv-x="1132" d="M45 0l367 1417h309l364 -1417h-155l-99 360h-530l-98 -360h-158zM313 1667v191h125v-191h-125zM332 500h467l-203 778h-59zM698 1667v191h123v-191h-123z" />
<glyph unicode="&#xc5;" horiz-adv-x="1132" d="M45 0l354 1374q-45 51 -45 142q0 102 57.5 153t157.5 51q96 0 154.5 -52t58.5 -152q0 -90 -51 -146l354 -1370h-155l-99 360h-530l-98 -360h-158zM332 500h467l-203 778h-59zM457 1516q0 -94 102 -99h10q109 0 109 98.5t-109 98.5q-112 0 -112 -98z" />
<glyph unicode="&#xc6;" horiz-adv-x="1587" d="M45 0l369 1425h1087v-147h-647v-487h530v-142h-530v-502h647v-147h-794v362h-416l-96 -362h-150zM324 508h383v770h-183z" />
<glyph unicode="&#xc7;" horiz-adv-x="1026" d="M109 707q0 369 106.5 550t374.5 181q76 0 166 -10.5t141 -22.5l53 -10l-10 -131q-193 35 -330 34q-199 0 -269.5 -145t-70.5 -446q0 -115 8.5 -199t30 -161t59.5 -125t99 -75.5t145 -27.5q55 0 137 8t136 16l55 11l8 -131q-190 -41 -350 -43v-72h16q201 0 201 -162 q0 -90 -49 -134t-133 -44q-37 0 -79 3t-65 7l-22 4l6 105q76 -6 127 -6q86 0 86 73q0 66 -86 66h-82v164q-121 12 -203 65t-127 151.5t-62 218.5t-17 288z" />
<glyph unicode="&#xc8;" horiz-adv-x="1038" d="M158 0v1417h792v-139h-637v-487h523v-140h-523v-512h637v-139h-792zM272 1774l50 133l421 -193l-45 -117z" />
<glyph unicode="&#xc9;" horiz-adv-x="1038" d="M158 0v1417h792v-139h-637v-487h523v-140h-523v-512h637v-139h-792zM348 1720l422 197l49 -133l-426 -176z" />
<glyph unicode="&#xca;" horiz-adv-x="1038" d="M158 0v1417h792v-139h-637v-487h523v-140h-523v-512h637v-139h-792zM242 1626l268 283h84l270 -283h-149l-162 166l-162 -166h-149z" />
<glyph unicode="&#xcb;" horiz-adv-x="1038" d="M158 0v1417h792v-139h-637v-487h523v-140h-523v-512h637v-139h-792zM315 1667v191h125v-191h-125zM700 1667v191h123v-191h-123z" />
<glyph unicode="&#xcc;" horiz-adv-x="471" d="M-104 1774l49 133l422 -193l-45 -117zM158 0v1417h155v-1417h-155z" />
<glyph unicode="&#xcd;" horiz-adv-x="471" d="M92 1720l422 197l49 -133l-426 -176zM158 0v1417h155v-1417h-155z" />
<glyph unicode="&#xce;" horiz-adv-x="471" d="M-78 1620l268 283h84l271 -283h-150l-162 166l-161 -166h-150zM158 0v1417h155v-1417h-155z" />
<glyph unicode="&#xcf;" horiz-adv-x="471" d="M-18 1677v191h124v-191h-124zM158 0v1417h155v-1417h-155zM367 1677v191h122v-191h-122z" />
<glyph unicode="&#xd0;" horiz-adv-x="1236" d="M33 633v158h133v626h469q274 0 382.5 -159.5t108.5 -522.5q0 -383 -107.5 -559t-383.5 -176h-469v633h-133zM322 139h313q190 0 259 146.5t69 449.5q0 293 -68 418t-260 125h-313v-487h294v-158h-294v-494z" />
<glyph unicode="&#xd1;" horiz-adv-x="1288" d="M158 0v1417h274l510 -1255h37v1255h151v-1417h-270l-512 1262h-35v-1262h-155zM309 1765q111 125 189 125q55 0 171.5 -56t139.5 -56q18 0 54 22.5t63 46.5l28 23l33 -105q-109 -123 -178 -123q-47 0 -166 57.5t-149 57.5q-20 0 -59.5 -24.5t-67.5 -49.5l-29 -24z" />
<glyph unicode="&#xd2;" horiz-adv-x="1253" d="M109 721q0 266 45 420.5t159 224.5q111 72 314 72q303 0 410.5 -163t107.5 -554q0 -279 -48 -440.5t-173 -235.5q-107 -65 -297 -65q-301 0 -409.5 173t-108.5 568zM272 721q0 -135 7.5 -223t28 -166t60.5 -121t103.5 -67.5t155.5 -24.5q117 0 184 35q102 51 136 181 t34 386q0 332 -65.5 454.5t-288.5 122.5q-115 0 -181 -28q-106 -45 -140 -169t-34 -380zM352 1774l49 133l422 -193l-45 -117z" />
<glyph unicode="&#xd3;" horiz-adv-x="1253" d="M109 721q0 266 45 420.5t159 224.5q111 72 314 72q303 0 410.5 -163t107.5 -554q0 -279 -48 -440.5t-173 -235.5q-107 -65 -297 -65q-301 0 -409.5 173t-108.5 568zM272 721q0 -135 7.5 -223t28 -166t60.5 -121t103.5 -67.5t155.5 -24.5q117 0 184 35q102 51 136 181 t34 386q0 332 -65.5 454.5t-288.5 122.5q-115 0 -181 -28q-106 -45 -140 -169t-34 -380zM436 1720l422 197l49 -133l-426 -176z" />
<glyph unicode="&#xd4;" horiz-adv-x="1253" d="M109 721q0 266 45 420.5t159 224.5q111 72 314 72q303 0 410.5 -163t107.5 -554q0 -279 -48 -440.5t-173 -235.5q-107 -65 -297 -65q-301 0 -409.5 173t-108.5 568zM272 721q0 -135 7.5 -223t28 -166t60.5 -121t103.5 -67.5t155.5 -24.5q117 0 184 35q102 51 136 181 t34 386q0 332 -65.5 454.5t-288.5 122.5q-115 0 -181 -28q-106 -45 -140 -169t-34 -380zM315 1624l269 283h84l270 -283h-150l-161 166l-162 -166h-150z" />
<glyph unicode="&#xd5;" horiz-adv-x="1253" d="M109 721q0 266 45 420.5t159 224.5q111 72 314 72q303 0 410.5 -163t107.5 -554q0 -279 -48 -440.5t-173 -235.5q-107 -65 -297 -65q-301 0 -409.5 173t-108.5 568zM272 721q0 -135 7.5 -223t28 -166t60.5 -121t103.5 -67.5t155.5 -24.5q117 0 184 35q102 51 136 181 t34 386q0 332 -65.5 454.5t-288.5 122.5q-115 0 -181 -28q-106 -45 -140 -169t-34 -380zM297 1765q111 125 188 125q55 0 172 -56t140 -56q18 0 54 22.5t62 46.5l29 23l33 -105q-109 -123 -178 -123q-47 0 -166 57.5t-150 57.5q-20 0 -59 -24.5t-68 -49.5l-28 -24z" />
<glyph unicode="&#xd6;" horiz-adv-x="1253" d="M109 721q0 266 45 420.5t159 224.5q111 72 314 72q303 0 410.5 -163t107.5 -554q0 -279 -48 -440.5t-173 -235.5q-107 -65 -297 -65q-301 0 -409.5 173t-108.5 568zM272 721q0 -135 7.5 -223t28 -166t60.5 -121t103.5 -67.5t155.5 -24.5q117 0 184 35q102 51 136 181 t34 386q0 332 -65.5 454.5t-288.5 122.5q-115 0 -181 -28q-106 -45 -140 -169t-34 -380zM365 1671v191h141v-191h-141zM752 1671v191h139v-191h-139z" />
<glyph unicode="&#xd7;" d="M145 184l332 330l-332 328l101 98l327 -332l330 334l98 -98l-333 -330l333 -330l-98 -98l-330 332l-329 -332z" />
<glyph unicode="&#xd8;" horiz-adv-x="1253" d="M109 721q0 266 45 420.5t159 224.5q111 72 314 72q147 0 252 -41l104 235l104 -41l-112 -250q94 -78 132 -227t38 -393q0 -279 -48 -440.5t-173 -235.5q-106 -66 -297 -65q-143 0 -238 36l-110 -249l-101 47l113 258q-102 80 -142 236.5t-40 412.5zM272 721 q0 -197 17.5 -314.5t68.5 -185.5l222 502l239 541q-76 35 -192 34q-115 0 -181 -28q-106 -45 -140 -169t-34 -380zM449 150q67 -31 178 -31q117 0 184 35q102 51 136 181t34 386q0 350 -74 465l-225 -510z" />
<glyph unicode="&#xd9;" horiz-adv-x="1222" d="M150 432v985h155v-995q0 -162 74 -232.5t231 -70.5q160 0 232.5 70.5t72.5 232.5v995h158v-985q0 -233 -112.5 -342.5t-350.5 -109.5q-236 0 -348 109.5t-112 342.5zM344 1774l49 133l422 -193l-45 -117z" />
<glyph unicode="&#xda;" horiz-adv-x="1222" d="M150 432v985h155v-995q0 -162 74 -232.5t231 -70.5q160 0 232.5 70.5t72.5 232.5v995h158v-985q0 -233 -112.5 -342.5t-350.5 -109.5q-236 0 -348 109.5t-112 342.5zM401 1720l422 197l49 -133l-426 -176z" />
<glyph unicode="&#xdb;" horiz-adv-x="1222" d="M150 432v985h155v-995q0 -162 74 -232.5t231 -70.5q160 0 232.5 70.5t72.5 232.5v995h158v-985q0 -233 -112.5 -342.5t-350.5 -109.5q-236 0 -348 109.5t-112 342.5zM152 1786l268 282h84l270 -282h-149l-162 166l-162 -166h-149z" />
<glyph unicode="&#xdc;" horiz-adv-x="1222" d="M150 432v985h155v-995q0 -162 74 -232.5t231 -70.5q160 0 232.5 70.5t72.5 232.5v995h158v-985q0 -233 -112.5 -342.5t-350.5 -109.5q-236 0 -348 109.5t-112 342.5zM348 1671v191h141v-191h-141zM737 1671v191h137v-191h-137z" />
<glyph unicode="&#xdd;" horiz-adv-x="1019" d="M20 1417h170l320 -653l317 653h168l-409 -823v-594h-150v594zM336 1720l422 197l49 -133l-426 -176z" />
<glyph unicode="&#xde;" horiz-adv-x="1134" d="M158 0v1425h153v-227h316q201 0 318.5 -116.5t117.5 -354.5q0 -227 -110.5 -354t-325.5 -127h-316v-246h-153zM311 385h314q139 0 206.5 93t67.5 249q0 143 -66.5 236.5t-207.5 93.5h-314v-672z" />
<glyph unicode="&#xdf;" horiz-adv-x="1091" d="M135 0v1100q0 223 89 307t290 84q205 0 290 -68.5t85 -224.5q0 -109 -34 -164t-122 -100q-68 -37 -92.5 -61.5t-24.5 -61.5q0 -41 31 -69.5t125 -77.5q147 -78 200.5 -139.5t53.5 -184.5q0 -193 -85 -276.5t-269 -83.5q-45 0 -108.5 6t-104.5 12l-39 6l6 119 q164 -10 217 -10q131 0 183.5 52t52.5 167q0 78 -38 117.5t-165 107.5q-111 57 -159 108.5t-48 135.5q0 82 30.5 126t123.5 91q68 37 93 73.5t25 100.5q0 96 -49 131t-178 35q-123 0 -178 -52.5t-55 -203.5v-1102h-146z" />
<glyph unicode="&#xe0;" horiz-adv-x="1009" d="M96 492q0 102 10.5 182t38 151.5t73.5 118.5t118 73.5t170 26.5q51 0 143 -8t158 -16l67 -10v-758l13 -250l-154 -6q-10 94 -10 176q-4 -8 -13.5 -20.5t-38 -46t-61 -59.5t-83 -46t-103.5 -20q-178 0 -253 125.5t-75 386.5zM252 492q0 -186 44 -282.5t159 -96.5 q70 0 136 53t97 106l33 54v567q-142 18 -197 18q-158 0 -215 -100t-57 -319zM285 1403l47 127l422 -193l-41 -110z" />
<glyph unicode="&#xe1;" horiz-adv-x="1009" d="M96 492q0 102 10.5 182t38 151.5t73.5 118.5t118 73.5t170 26.5q51 0 143 -8t158 -16l67 -10v-758l13 -250l-154 -6q-10 94 -10 176q-4 -8 -13.5 -20.5t-38 -46t-61 -59.5t-83 -46t-103.5 -20q-178 0 -253 125.5t-75 386.5zM252 492q0 -186 44 -282.5t159 -96.5 q70 0 136 53t97 106l33 54v567q-142 18 -197 18q-158 0 -215 -100t-57 -319zM369 1335l422 197l47 -135l-426 -176z" />
<glyph unicode="&#xe2;" horiz-adv-x="1009" d="M96 492q0 102 10.5 182t38 151.5t73.5 118.5t118 73.5t170 26.5q51 0 143 -8t158 -16l67 -10v-758l13 -250l-154 -6q-10 94 -10 176q-4 -8 -13.5 -20.5t-38 -46t-61 -59.5t-83 -46t-103.5 -20q-178 0 -253 125.5t-75 386.5zM223 1202l248 309h111l249 -309h-163l-140 174 l-143 -174h-162zM252 492q0 -186 44 -282.5t159 -96.5q70 0 136 53t97 106l33 54v567q-142 18 -197 18q-158 0 -215 -100t-57 -319z" />
<glyph unicode="&#xe3;" horiz-adv-x="1009" d="M96 492q0 102 10.5 182t38 151.5t73.5 118.5t118 73.5t170 26.5q51 0 143 -8t158 -16l67 -10v-758l13 -250l-154 -6q-10 94 -10 176q-4 -8 -13.5 -20.5t-38 -46t-61 -59.5t-83 -46t-103.5 -20q-178 0 -253 125.5t-75 386.5zM240 1378q100 113 178 113q47 0 153.5 -49 t128.5 -49q18 0 52 20.5t59 40.5l23 19l30 -109q-94 -106 -166 -107q-47 0 -151.5 49.5t-132.5 49.5q-23 0 -59 -21.5t-60 -44.5l-27 -20zM252 492q0 -186 44 -282.5t159 -96.5q70 0 136 53t97 106l33 54v567q-142 18 -197 18q-158 0 -215 -100t-57 -319z" />
<glyph unicode="&#xe4;" horiz-adv-x="1009" d="M96 492q0 102 10.5 182t38 151.5t73.5 118.5t118 73.5t170 26.5q51 0 143 -8t158 -16l67 -10v-758l13 -250l-154 -6q-10 94 -10 176q-4 -8 -13.5 -20.5t-38 -46t-61 -59.5t-83 -46t-103.5 -20q-178 0 -253 125.5t-75 386.5zM250 1270v190h141v-190h-141zM252 492 q0 -186 44 -282.5t159 -96.5q70 0 136 53t97 106l33 54v567q-142 18 -197 18q-158 0 -215 -100t-57 -319zM639 1270v190h137v-190h-137z" />
<glyph unicode="&#xe5;" horiz-adv-x="1009" d="M96 492q0 102 10.5 182t38 151.5t73.5 118.5t118 73.5t170 26.5q51 0 143 -8t158 -16l67 -10v-758l13 -250l-154 -6q-10 94 -10 176q-4 -8 -13.5 -20.5t-38 -46t-61 -59.5t-83 -46t-103.5 -20q-178 0 -253 125.5t-75 386.5zM252 492q0 -186 44 -282.5t159 -96.5 q70 0 136 53t97 106l33 54v567q-142 18 -197 18q-158 0 -215 -100t-57 -319zM360 1356q0 88 52.5 144t136.5 56q82 0 132 -56t50 -144q0 -92 -50 -146.5t-132 -54.5q-88 0 -138.5 54.5t-50.5 146.5zM453 1356q0 -41 27.5 -71t68.5 -30q39 0 64.5 30t25.5 71t-25.5 68.5 t-64.5 27.5q-41 0 -68.5 -27.5t-27.5 -68.5z" />
<glyph unicode="&#xe6;" horiz-adv-x="1536" d="M78 293q0 133 55 200.5t170 92.5q121 27 361 43q0 45 -1 63.5t-4.5 58.5t-13.5 58t-26.5 43t-46 34t-68.5 9q-63 0 -155.5 -5t-151.5 -11l-62 -7l-6 142q227 31 375 30q205 0 264 -153q96 154 301 153q287 0 356 -268q23 -90 23 -229v-103h-635q0 -92 18 -159 q48 -162 230 -162q61 0 148 4t143 8l57 6l4 -129q-199 -33 -360 -32q-195 0 -289 112q-240 -113 -418 -112q-131 0 -199.5 89t-68.5 224zM225 299q0 -74 34 -128t106 -54q137 0 344 71q-47 106 -47 318q-117 -8 -277 -31q-82 -12 -121 -53t-39 -123zM813 573h490 q0 143 -35 220q-53 113 -203 112q-252 0 -252 -332z" />
<glyph unicode="&#xe7;" horiz-adv-x="817" d="M94 526q0 270 95.5 394t304.5 124q47 0 108.5 -8t99.5 -16l39 -6l-6 -123q-137 18 -211 18q-154 0 -213 -91t-59 -292q0 -215 53 -314t219 -99l211 16l6 -121q-145 -29 -249 -28h-17v-72h17q201 0 200 -162q0 -90 -49 -134t-133 -44q-37 0 -79 3t-64 7l-23 4l6 105 q76 -6 127 -6q86 0 86 73q0 66 -86 66h-82v168q-172 27 -236.5 156.5t-64.5 381.5z" />
<glyph unicode="&#xe8;" horiz-adv-x="927" d="M92 496q0 547 416 546q342 0 342 -274q0 -178 -116 -244.5t-380 -66.5h-106v-31q-1 -313 239 -313q66 0 145 9t126 19l47 11l8 -113q-147 -57 -334 -57q-203 0 -295 121.5t-92 392.5zM221 1403l47 127l422 -193l-41 -110zM250 575h102q193 0 269.5 39t76.5 152 q0 150 -190 149q-254 0 -258 -340z" />
<glyph unicode="&#xe9;" horiz-adv-x="927" d="M92 496q0 547 416 546q342 0 342 -274q0 -178 -116 -244.5t-380 -66.5h-106v-31q-1 -313 239 -313q66 0 145 9t126 19l47 11l8 -113q-147 -57 -334 -57q-203 0 -295 121.5t-92 392.5zM250 575h102q193 0 269.5 39t76.5 152q0 150 -190 149q-254 0 -258 -340zM281 1335 l421 197l48 -135l-426 -176z" />
<glyph unicode="&#xea;" horiz-adv-x="927" d="M92 496q0 547 416 546q342 0 342 -274q0 -178 -116 -244.5t-380 -66.5h-106v-31q-1 -313 239 -313q66 0 145 9t126 19l47 11l8 -113q-147 -57 -334 -57q-203 0 -295 121.5t-92 392.5zM193 1202l245 309h111l250 -309h-162l-141 174l-142 -174h-161zM250 575h102 q193 0 269.5 39t76.5 152q0 150 -190 149q-254 0 -258 -340z" />
<glyph unicode="&#xeb;" horiz-adv-x="927" d="M92 496q0 547 416 546q342 0 342 -274q0 -178 -116 -244.5t-380 -66.5h-106v-31q-1 -313 239 -313q66 0 145 9t126 19l47 11l8 -113q-147 -57 -334 -57q-203 0 -295 121.5t-92 392.5zM244 1270v190h141v-190h-141zM250 575h102q193 0 269.5 39t76.5 152q0 150 -190 149 q-254 0 -258 -340zM633 1270v190h137v-190h-137z" />
<glyph unicode="&#xec;" horiz-adv-x="423" d="M-131 1403l47 127l422 -193l-41 -110zM135 0v1024h154v-1024h-154z" />
<glyph unicode="&#xed;" horiz-adv-x="423" d="M102 1335l422 197l47 -135l-426 -176zM135 0v1024h154v-1024h-154z" />
<glyph unicode="&#xee;" horiz-adv-x="423" d="M-90 1202l246 309h112l248 -309h-162l-141 174l-141 -174h-162zM135 0v1024h154v-1024h-154z" />
<glyph unicode="&#xef;" horiz-adv-x="423" d="M-49 1270v190h139v-190h-139zM135 0v1024h154v-1024h-154zM338 1270v190h137v-190h-137z" />
<glyph unicode="&#xf0;" horiz-adv-x="1054" d="M82 428q0 217 104.5 336t298.5 119q61 0 141.5 -17.5t129.5 -36.5l49 -18q-14 141 -81 238.5t-210 171.5l-207 -158l-69 94l153 117q-102 37 -209 65l31 138q178 -35 317 -97l183 138l71 -93l-139 -106q311 -195 311 -586q0 -406 -103 -578.5t-341 -172.5 q-211 0 -320.5 116.5t-109.5 329.5zM238 426q0 -133 69.5 -213t204.5 -80q158 0 224.5 118t68.5 413q-12 6 -53 21t-120 33.5t-138 18.5q-123 0 -189.5 -82t-66.5 -229z" />
<glyph unicode="&#xf1;" horiz-adv-x="1026" d="M135 0h154v721q6 8 15 20.5t39 45t59.5 58t71.5 46t81 20.5q102 0 147.5 -75.5t45.5 -241.5v-594h151v637q0 408 -313 407q-76 0 -151 -44t-111 -87l-35 -43l-2 154h-152v-1024zM225 1378q100 113 178 113q47 0 154 -49t129 -49q18 0 52 20.5t57 40.5l24 19l31 -109 q-94 -106 -166 -107q-45 0 -151.5 49.5t-133.5 49.5q-23 0 -58.5 -21.5t-61.5 -44.5l-25 -20z" />
<glyph unicode="&#xf2;" horiz-adv-x="995" d="M96 522q0 262 88 392t313.5 130t313.5 -130t88 -392q0 -106 -8 -182t-32.5 -147.5t-67.5 -115.5t-117 -70.5t-176.5 -26.5t-176 26.5t-116.5 70.5t-67.5 115.5t-33 147.5t-8.5 182zM221 1403l47 127l422 -193l-41 -110zM244 522q0 -86 4 -140t18.5 -110.5t41 -88 t74.5 -51t115.5 -19.5t116 19.5t75 51t40.5 88t18.5 110.5t4.5 140q0 205 -54.5 297t-200 92t-199.5 -92t-54 -297z" />
<glyph unicode="&#xf3;" horiz-adv-x="995" d="M96 522q0 262 88 392t313.5 130t313.5 -130t88 -392q0 -106 -8 -182t-32.5 -147.5t-67.5 -115.5t-117 -70.5t-176.5 -26.5t-176 26.5t-116.5 70.5t-67.5 115.5t-33 147.5t-8.5 182zM244 522q0 -86 4 -140t18.5 -110.5t41 -88t74.5 -51t115.5 -19.5t116 19.5t75 51 t40.5 88t18.5 110.5t4.5 140q0 205 -54.5 297t-200 92t-199.5 -92t-54 -297zM307 1335l422 197l47 -135l-426 -176z" />
<glyph unicode="&#xf4;" horiz-adv-x="995" d="M96 522q0 262 88 392t313.5 130t313.5 -130t88 -392q0 -106 -8 -182t-32.5 -147.5t-67.5 -115.5t-117 -70.5t-176.5 -26.5t-176 26.5t-116.5 70.5t-67.5 115.5t-33 147.5t-8.5 182zM195 1202l245 309h113l248 -309h-162l-141 174l-142 -174h-161zM244 522q0 -86 4 -140 t18.5 -110.5t41 -88t74.5 -51t115.5 -19.5t116 19.5t75 51t40.5 88t18.5 110.5t4.5 140q0 205 -54.5 297t-200 92t-199.5 -92t-54 -297z" />
<glyph unicode="&#xf5;" horiz-adv-x="995" d="M96 522q0 262 88 392t313.5 130t313.5 -130t88 -392q0 -106 -8 -182t-32.5 -147.5t-67.5 -115.5t-117 -70.5t-176.5 -26.5t-176 26.5t-116.5 70.5t-67.5 115.5t-33 147.5t-8.5 182zM186 1378q100 113 179 113q47 0 153.5 -49t128.5 -49q18 0 52 20.5t59 40.5l22 19 l31 -109q-94 -106 -166 -107q-47 0 -151.5 49.5t-133.5 49.5q-23 0 -58.5 -21.5t-59.5 -44.5l-27 -20zM244 522q0 -86 4 -140t18.5 -110.5t41 -88t74.5 -51t115.5 -19.5t116 19.5t75 51t40.5 88t18.5 110.5t4.5 140q0 205 -54.5 297t-200 92t-199.5 -92t-54 -297z" />
<glyph unicode="&#xf6;" horiz-adv-x="995" d="M96 522q0 262 88 392t313.5 130t313.5 -130t88 -392q0 -106 -8 -182t-32.5 -147.5t-67.5 -115.5t-117 -70.5t-176.5 -26.5t-176 26.5t-116.5 70.5t-67.5 115.5t-33 147.5t-8.5 182zM244 522q0 -86 4 -140t18.5 -110.5t41 -88t74.5 -51t115.5 -19.5t116 19.5t75 51 t40.5 88t18.5 110.5t4.5 140q0 205 -54.5 297t-200 92t-199.5 -92t-54 -297zM244 1270v190h127v-190h-127zM618 1270v190h123v-190h-123z" />
<glyph unicode="&#xf7;" d="M246 575v150h116v98h422v-98h115v-150h-653zM496 61v207h153v-207h-153z" />
<glyph unicode="&#xf8;" horiz-adv-x="995" d="M96 524q0 262 88.5 392.5t313.5 130.5q76 0 141 -17l80 209l100 -39l-86 -213q166 -106 166 -463q0 -106 -8 -182t-32.5 -147.5t-67.5 -115.5t-117 -70.5t-176 -26.5q-84 0 -150 18l-84 -227l-98 37l90 229q-94 59 -127 176t-33 309zM244 524q-1 -264 67 -344l138 348 l141 373q-41 12 -92 12q-145 0 -199.5 -92t-54.5 -297zM397 127q44 -12 101 -12q68 0 116 19.5t74.5 51t40.5 88t18.5 110.5t4.5 140q0 240 -74 324l-141 -354z" />
<glyph unicode="&#xf9;" horiz-adv-x="1028" d="M127 395v629h154v-594q0 -168 44 -242.5t148 -74.5q61 0 128 48t104 95l34 47v721h152v-1024h-150l-2 154q-4 -6 -14 -18.5t-41 -42.5t-63.5 -53.5t-80.5 -41.5t-98 -18q-166 0 -240.5 102t-74.5 313zM213 1403l47 127l422 -193l-41 -110z" />
<glyph unicode="&#xfa;" horiz-adv-x="1028" d="M127 395v629h154v-594q0 -168 44 -242.5t148 -74.5q61 0 128 48t104 95l34 47v721h152v-1024h-150l-2 154q-4 -6 -14 -18.5t-41 -42.5t-63.5 -53.5t-80.5 -41.5t-98 -18q-166 0 -240.5 102t-74.5 313zM326 1335l422 197l47 -135l-426 -176z" />
<glyph unicode="&#xfb;" horiz-adv-x="1028" d="M127 395v629h154v-594q0 -168 44 -242.5t148 -74.5q61 0 128 48t104 95l34 47v721h152v-1024h-150l-2 154q-4 -6 -14 -18.5t-41 -42.5t-63.5 -53.5t-80.5 -41.5t-98 -18q-166 0 -240.5 102t-74.5 313zM211 1202l246 309h110l250 -309h-162l-141 174l-141 -174h-162z" />
<glyph unicode="&#xfc;" horiz-adv-x="1028" d="M127 395v629h154v-594q0 -168 44 -242.5t148 -74.5q61 0 128 48t104 95l34 47v721h152v-1024h-150l-2 154q-4 -6 -14 -18.5t-41 -42.5t-63.5 -53.5t-80.5 -41.5t-98 -18q-166 0 -240.5 102t-74.5 313zM250 1270v190h141v-190h-141zM639 1270v190h137v-190h-137z" />
<glyph unicode="&#xfd;" horiz-adv-x="917" d="M49 1024h152l225 -893h63l230 893h151l-393 -1479h-147l129 455h-142zM291 1335l422 197l47 -135l-426 -176z" />
<glyph unicode="&#xfe;" horiz-adv-x="1009" d="M135 -451v1917h152v-571q4 4 30.5 26.5t49 40t56.5 39t69.5 32.5t70.5 11q352 0 352 -530q0 -279 -100 -406.5t-328 -127.5l-200 14v-445h-152zM287 139q139 -20 200 -20q150 0 210.5 97t60.5 298q0 104 -17.5 185t-68.5 142.5t-133 61.5q-55 0 -118 -40t-97 -81l-37 -41 v-602z" />
<glyph unicode="&#xff;" horiz-adv-x="917" d="M49 1024h152l225 -893h63l230 893h151l-393 -1479h-147l129 455h-142zM197 1270v190h141v-190h-141zM584 1270v190h139v-190h-139z" />
<glyph unicode="&#x152;" horiz-adv-x="1759" d="M106 707q0 377 118 558t388 181q109 0 273 -21h788v-153h-641v-477h527v-150h-527v-491h641v-156h-784q-203 -18 -277 -18q-190 0 -300.5 81.5t-159.5 247.5q-45 156 -46 398zM258 709q0 -193 31 -320q33 -131 113 -193.5t225 -62.5q51 0 258 17v1124q-152 18 -260 18 q-203 0 -285 -139t-82 -444z" />
<glyph unicode="&#x153;" horiz-adv-x="1638" d="M96 526q0 266 93.5 392t316.5 126q242 0 336 -192q94 193 321 192q279 0 355 -241q33 -104 32 -238v-121h-639q0 -102 25 -176q51 -145 225 -145q61 0 149.5 4t143.5 8l57 6l5 -129q-201 -33 -365 -32q-217 0 -313 172q-86 -172 -332 -172q-287 0 -367 213 q-43 125 -43 333zM242 526q0 -221 47 -307q55 -98 217 -98q70 0 119 22.5t76.5 55t42 89t18.5 107.5t4 127q0 141 -31 232q-53 150 -229 149q-150 0 -207 -85t-57 -292zM911 573h494q0 147 -35 220q-49 106 -203 106q-256 0 -256 -326z" />
<glyph unicode="&#x178;" horiz-adv-x="1019" d="M20 1417h170l320 -653l317 653h168l-409 -823v-594h-150v594zM256 1657v190h125v-190h-125zM641 1657v190h123v-190h-123z" />
<glyph unicode="&#x2c6;" horiz-adv-x="1619" d="M502 1202l246 309h83l250 -309h-149l-139 174l-144 -174h-147z" />
<glyph unicode="&#x2dc;" horiz-adv-x="874" d="M125 1378q100 113 178 113q47 0 153.5 -49t129.5 -49q18 0 52 20.5t58 40.5l23 19l31 -109q-94 -106 -166 -107q-47 0 -151.5 49.5t-133.5 49.5q-23 0 -58.5 -21.5t-60.5 -44.5l-26 -20z" />
<glyph unicode="&#x2000;" horiz-adv-x="1034" />
<glyph unicode="&#x2001;" horiz-adv-x="2068" />
<glyph unicode="&#x2002;" horiz-adv-x="1034" />
<glyph unicode="&#x2003;" horiz-adv-x="2068" />
<glyph unicode="&#x2004;" horiz-adv-x="689" />
<glyph unicode="&#x2005;" horiz-adv-x="517" />
<glyph unicode="&#x2006;" horiz-adv-x="344" />
<glyph unicode="&#x2007;" horiz-adv-x="344" />
<glyph unicode="&#x2008;" horiz-adv-x="258" />
<glyph unicode="&#x2009;" horiz-adv-x="413" />
<glyph unicode="&#x200a;" horiz-adv-x="114" />
<glyph unicode="&#x2010;" horiz-adv-x="770" d="M129 477v141h514v-141h-514z" />
<glyph unicode="&#x2011;" horiz-adv-x="770" d="M129 477v141h514v-141h-514z" />
<glyph unicode="&#x2012;" horiz-adv-x="770" d="M129 477v141h514v-141h-514z" />
<glyph unicode="&#x2013;" horiz-adv-x="1282" d="M129 481v135h1024v-135h-1024z" />
<glyph unicode="&#x2014;" horiz-adv-x="2306" d="M129 481v135h2048v-135h-2048z" />
<glyph unicode="&#x2018;" horiz-adv-x="409" d="M92 958l111 457h110l-73 -457h-148z" />
<glyph unicode="&#x2019;" horiz-adv-x="407" d="M102 961l74 456h148l-111 -456h-111z" />
<glyph unicode="&#x201a;" horiz-adv-x="397" d="M119 -92l22 90h23l-14 -90h-31z" />
<glyph unicode="&#x201c;" horiz-adv-x="735" d="M94 961l111 456h110l-73 -456h-148zM418 961l110 456h111l-74 -456h-147z" />
<glyph unicode="&#x201d;" horiz-adv-x="731" d="M102 961l74 456h148l-111 -456h-111zM426 961l74 456h147l-110 -456h-111z" />
<glyph unicode="&#x201e;" horiz-adv-x="675" d="M168 -326l111 457h139l-74 -457h-176z" />
<glyph unicode="&#x2022;" horiz-adv-x="942" d="M215 217v586h512v-586h-512z" />
<glyph unicode="&#x2026;" horiz-adv-x="1378" d="M129 0v227h156v-227h-156zM612 0v227h156v-227h-156zM1096 0v227h155v-227h-155z" />
<glyph unicode="&#x202f;" horiz-adv-x="413" />
<glyph unicode="&#x2039;" horiz-adv-x="569" d="M78 469v78l364 291v-140l-241 -188l241 -207v-141z" />
<glyph unicode="&#x203a;" horiz-adv-x="569" d="M127 440v29l242 37l-242 41v28l365 -61v-14z" />
<glyph unicode="&#x205f;" horiz-adv-x="517" />
<glyph unicode="&#x20ac;" d="M113 428v127h92q-2 39 -2 121q0 63 2 94h-92v125h100q27 240 130 359.5t319 119.5q72 0 157.5 -10t134.5 -21l52 -10l-9 -127q-184 35 -315 35q-150 0 -222.5 -87t-92.5 -259h542v-125h-551q-2 -31 -2 -94q0 -84 2 -121h551v-127h-538q23 -156 96.5 -235.5t216.5 -79.5 q51 0 130 9t132 17l51 8l7 -124q-186 -43 -342 -43q-213 0 -316.5 111.5t-130.5 336.5h-102z" />
<glyph unicode="&#x2122;" horiz-adv-x="1355" d="M172 1188v102h410v-102h-138v-508h-112v508h-160zM645 678v612h146l137 -426l143 426h146v-612h-107v459l-137 -428h-88l-133 428v-459h-107z" />
<glyph unicode="&#x25fc;" horiz-adv-x="1024" d="M0 0v1024h1024v-1024h-1024z" />
</font>
</defs>
</svg>
